<svg xmlns="http://www.w3.org/2000/svg" xmlns:xlink="http://www.w3.org/1999/xlink" width="70" height="70"><defs><path id="a" d="M4 0h61c4 0 5 1 5 5v60c0 4-1 5-5 5H4c-3 0-4-1-4-5V5c0-4 1-5 4-5z"/><linearGradient id="c" x1="100%" x2="0%" y1="0%" y2="100%"><stop offset="0%" stop-color="#DA956B"/><stop offset="100%" stop-color="#CC7039"/></linearGradient></defs><g fill="none" fill-rule="evenodd"><mask id="b" fill="#fff"><use xlink:href="#a"/></mask><g mask="url(#b)"><path fill="url(#c)" d="M0 0H70V70H0z"/><path fill="#FFF" fill-opacity=".383" d="M4 1h61c2.667 0 4.333.667 5 2V0H0v3c.667-1.333 2-2 4-2z"/><path fill="#393939" d="M4 69c-2 0-4-1-4-4V39.176L11 26l8.052.244L17 32h7l4 3 8-9h12l-3 5.851h6.766L60 41l-3 3h3v4L38.919 69H4z" opacity=".324"/><path fill="#000" fill-opacity=".383" d="M4 69h61c2.667 0 4.333-1 5-3v4H0v-4c.667 2 2 3 4 3z"/><path fill="#000" fill-rule="nonzero" d="M35.661 28v5.923h-.037c-.739-.862-1.662-1.162-2.733-1.162-2.195 0-3.849 1.515-4.429 3.517-.662-2.206-2.37-3.559-4.9-3.559-2.056 0-3.678.937-4.526 2.463v-1.897h-4.249v-2.059h4.637v-3.225H11v14.472h3.787V36.39h3.775a5.863 5.863 0 0 0-.173 1.43c0 3.018 2.272 5.14 5.172 5.14 2.439 0 4.047-1.164 4.896-3.281h-3.245c-.44.637-.773.825-1.65.825-1.018 0-1.896-.901-1.896-1.968h6.61C28.561 40.933 30.401 43 32.927 43c1.089 0 2.086-.544 2.696-1.462h.037v.937H39V28.001h-3.339V28zm-13.89 8.433c.212-.92.914-1.52 1.79-1.52.966 0 1.633.582 1.808 1.52h-3.597zm11.864 3.838c-1.23 0-1.995-1.164-1.995-2.38 0-1.299.665-2.547 1.995-2.547 1.38 0 1.93 1.249 1.93 2.548 0 1.23-.583 2.379-1.93 2.379zM56.013 43l-2.01-2.331L52.011 43h-4.193l4.098-4.76-4.098-4.762h4.324l2.03 2.313 1.954-2.313h4.172l-4.077 4.742L60.355 43h-4.342zm-16.245 0V28h8.05v3.343h-4.64v2.135h4.64v3.217h-4.64v2.953h4.64V43h-8.05zm13.04 3.508h-1.284v-.792h3.51v.792H53.75V50h-.942v-3.492zm2.718-.792h1.326l1.002 2.946h.012l.948-2.946h1.326V50h-.882v-3.036h-.012L58.196 50h-.726l-1.05-3.006h-.012V50h-.882v-4.284z" opacity=".3"/><path fill="#FFF" fill-rule="nonzero" d="M35.661 26v5.923h-.037c-.739-.862-1.662-1.162-2.733-1.162-2.195 0-3.849 1.515-4.429 3.517-.662-2.206-2.37-3.559-4.9-3.559-2.056 0-3.678.937-4.526 2.463v-1.897h-4.249v-2.059h4.637v-3.225H11v14.472h3.787V34.39h3.775a5.863 5.863 0 0 0-.173 1.43c0 3.018 2.272 5.14 5.172 5.14 2.439 0 4.047-1.164 4.896-3.281h-3.245c-.44.637-.773.825-1.65.825-1.018 0-1.896-.901-1.896-1.968h6.61C28.561 38.933 30.401 41 32.927 41c1.089 0 2.086-.544 2.696-1.462h.037v.937H39V26.001h-3.339V26zm-13.89 8.433c.212-.92.914-1.52 1.79-1.52.966 0 1.633.582 1.808 1.52h-3.597zm11.864 3.838c-1.23 0-1.995-1.164-1.995-2.38 0-1.299.665-2.547 1.995-2.547 1.38 0 1.93 1.249 1.93 2.548 0 1.23-.583 2.379-1.93 2.379zM56.013 41l-2.01-2.331L52.011 41h-4.193l4.098-4.76-4.098-4.762h4.324l2.03 2.313 1.954-2.313h4.172l-4.077 4.742L60.355 41h-4.342zm-16.245 0V26h8.05v3.343h-4.64v2.135h4.64v3.217h-4.64v2.953h4.64V41h-8.05zm13.04 3.508h-1.284v-.792h3.51v.792H53.75V48h-.942v-3.492zm2.718-.792h1.326l1.002 2.946h.012l.948-2.946h1.326V48h-.882v-3.036h-.012L58.196 48h-.726l-1.05-3.006h-.012V48h-.882v-4.284z"/></g></g></svg>